<?xml version="1.0" encoding="UTF-8" standalone="no"?>
<!DOCTYPE svg PUBLIC "-//W3C//DTD SVG 1.1//EN"
 "http://www.w3.org/Graphics/SVG/1.1/DTD/svg11.dtd">
<!-- Generated by graphviz version 2.26.3 (20100126.1600)
 -->
<!-- Title: G Pages: 1 -->
<svg width="1070pt" height="850pt"
 viewBox="0.00 0.00 1070.00 850.00" xmlns="http://www.w3.org/2000/svg" xmlns:xlink="http://www.w3.org/1999/xlink">
<g id="graph1" class="graph" transform="scale(1 1) rotate(0) translate(4 846)">
<title>G</title>
<polygon fill="white" stroke="white" points="-4,5 -4,-846 1067,-846 1067,5 -4,5"/>
<g id="graph2" class="cluster"><title>cluster_Global</title>
<polyline fill="none" stroke="gray" points="20,-44 1042,-44 "/>
<path fill="none" stroke="gray" d="M1042,-44C1048,-44 1054,-50 1054,-56"/>
<polyline fill="none" stroke="gray" points="1054,-56 1054,-822 "/>
<path fill="none" stroke="gray" d="M1054,-822C1054,-828 1048,-834 1042,-834"/>
<polyline fill="none" stroke="gray" points="1042,-834 20,-834 "/>
<path fill="none" stroke="gray" d="M20,-834C14,-834 8,-828 8,-822"/>
<polyline fill="none" stroke="gray" points="8,-822 8,-56 "/>
<path fill="none" stroke="gray" d="M8,-56C8,-50 14,-44 20,-44"/>
<text text-anchor="middle" x="531" y="-820.1" font-family="Times Roman,serif" font-size="11.00" fill="gray">\</text>
</g>
<g id="graph3" class="cluster"><title>cluster_\Menu</title>
<polyline fill="none" stroke="gray" points="605,-350 1034,-350 "/>
<path fill="none" stroke="gray" d="M1034,-350C1040,-350 1046,-356 1046,-362"/>
<polyline fill="none" stroke="gray" points="1046,-362 1046,-792 "/>
<path fill="none" stroke="gray" d="M1046,-792C1046,-798 1040,-804 1034,-804"/>
<polyline fill="none" stroke="gray" points="1034,-804 605,-804 "/>
<path fill="none" stroke="gray" d="M605,-804C599,-804 593,-798 593,-792"/>
<polyline fill="none" stroke="gray" points="593,-792 593,-362 "/>
<path fill="none" stroke="gray" d="M593,-362C593,-356 599,-350 605,-350"/>
<text text-anchor="middle" x="819.5" y="-790.1" font-family="Times Roman,serif" font-size="11.00" fill="gray">Menu</text>
</g>
<g id="graph4" class="cluster"><title>cluster_\Menu\Items</title>
<polyline fill="none" stroke="gray" points="942,-510 1004,-510 "/>
<path fill="none" stroke="gray" d="M1004,-510C1010,-510 1016,-516 1016,-522"/>
<polyline fill="none" stroke="gray" points="1016,-522 1016,-762 "/>
<path fill="none" stroke="gray" d="M1016,-762C1016,-768 1010,-774 1004,-774"/>
<polyline fill="none" stroke="gray" points="1004,-774 942,-774 "/>
<path fill="none" stroke="gray" d="M942,-774C936,-774 930,-768 930,-762"/>
<polyline fill="none" stroke="gray" points="930,-762 930,-522 "/>
<path fill="none" stroke="gray" d="M930,-522C930,-516 936,-510 942,-510"/>
<text text-anchor="middle" x="973" y="-760.1" font-family="Times Roman,serif" font-size="11.00" fill="gray">Items</text>
</g>
<g id="graph5" class="cluster"><title>cluster_\Menu\Items\Contents</title>
<polyline fill="none" stroke="gray" points="950,-518 996,-518 "/>
<path fill="none" stroke="gray" d="M996,-518C1002,-518 1008,-524 1008,-530"/>
<polyline fill="none" stroke="gray" points="1008,-530 1008,-634 "/>
<path fill="none" stroke="gray" d="M1008,-634C1008,-640 1002,-646 996,-646"/>
<polyline fill="none" stroke="gray" points="996,-646 950,-646 "/>
<path fill="none" stroke="gray" d="M950,-646C944,-646 938,-640 938,-634"/>
<polyline fill="none" stroke="gray" points="938,-634 938,-530 "/>
<path fill="none" stroke="gray" d="M938,-530C938,-524 944,-518 950,-518"/>
<text text-anchor="middle" x="973" y="-632.1" font-family="Times Roman,serif" font-size="11.00" fill="gray">Contents</text>
</g>
<g id="graph6" class="cluster"><title>cluster_\Menu\Traits</title>
<polyline fill="none" stroke="gray" points="613,-572 689,-572 "/>
<path fill="none" stroke="gray" d="M689,-572C695,-572 701,-578 701,-584"/>
<polyline fill="none" stroke="gray" points="701,-584 701,-688 "/>
<path fill="none" stroke="gray" d="M701,-688C701,-694 695,-700 689,-700"/>
<polyline fill="none" stroke="gray" points="689,-700 613,-700 "/>
<path fill="none" stroke="gray" d="M613,-700C607,-700 601,-694 601,-688"/>
<polyline fill="none" stroke="gray" points="601,-688 601,-584 "/>
<path fill="none" stroke="gray" d="M601,-584C601,-578 607,-572 613,-572"/>
<text text-anchor="middle" x="651" y="-686.1" font-family="Times Roman,serif" font-size="11.00" fill="gray">Traits</text>
</g>
<g id="graph7" class="cluster"><title>cluster_\HtmlObject</title>
<polyline fill="none" stroke="gray" points="28,-52 674,-52 "/>
<path fill="none" stroke="gray" d="M674,-52C680,-52 686,-58 686,-64"/>
<polyline fill="none" stroke="gray" points="686,-64 686,-330 "/>
<path fill="none" stroke="gray" d="M686,-330C686,-336 680,-342 674,-342"/>
<polyline fill="none" stroke="gray" points="674,-342 28,-342 "/>
<path fill="none" stroke="gray" d="M28,-342C22,-342 16,-336 16,-330"/>
<polyline fill="none" stroke="gray" points="16,-330 16,-64 "/>
<path fill="none" stroke="gray" d="M16,-64C16,-58 22,-52 28,-52"/>
<text text-anchor="middle" x="351" y="-328.1" font-family="Times Roman,serif" font-size="11.00" fill="gray">HtmlObject</text>
</g>
<g id="graph8" class="cluster"><title>cluster_\HtmlObject\Traits</title>
<polyline fill="none" stroke="gray" points="36,-172 256,-172 "/>
<path fill="none" stroke="gray" d="M256,-172C262,-172 268,-178 268,-184"/>
<polyline fill="none" stroke="gray" points="268,-184 268,-288 "/>
<path fill="none" stroke="gray" d="M268,-288C268,-294 262,-300 256,-300"/>
<polyline fill="none" stroke="gray" points="256,-300 36,-300 "/>
<path fill="none" stroke="gray" d="M36,-300C30,-300 24,-294 24,-288"/>
<polyline fill="none" stroke="gray" points="24,-288 24,-184 "/>
<path fill="none" stroke="gray" d="M24,-184C24,-178 30,-172 36,-172"/>
<text text-anchor="middle" x="146" y="-286.1" font-family="Times Roman,serif" font-size="11.00" fill="gray">Traits</text>
</g>
<!-- \\Menu\\Items\\Contents\\Link -->
<g id="node5" class="node"><title>\\Menu\\Items\\Contents\\Link</title>
<polygon fill="none" stroke="black" points="1000,-562 946,-562 946,-526 1000,-526 1000,-562"/>
<text text-anchor="middle" x="973" y="-541.1" font-family="Times Roman,serif" font-size="11.00">Link</text>
</g>
<!-- \\HtmlObject\\Link -->
<g id="node20" class="node"><title>\\HtmlObject\\Link</title>
<polygon fill="none" stroke="black" points="390,-258 336,-258 336,-222 390,-222 390,-258"/>
<text text-anchor="middle" x="363" y="-237.1" font-family="Times Roman,serif" font-size="11.00">Link</text>
</g>
<!-- \\Menu\\Items\\Contents\\Link&#45;&gt;\\HtmlObject\\Link -->
<g id="edge13" class="edge"><title>\\Menu\\Items\\Contents\\Link&#45;&gt;\\HtmlObject\\Link</title>
<path fill="none" stroke="black" d="M945.777,-535.8C934.007,-531.996 920.17,-527.173 908,-522 709.819,-437.76 484.82,-310.737 398.91,-261.012"/>
<polygon fill="none" stroke="black" points="400.487,-257.881 390.081,-255.89 396.975,-263.936 400.487,-257.881"/>
</g>
<!-- \\Menu\\Items\\Contents\\Raw -->
<g id="node6" class="node"><title>\\Menu\\Items\\Contents\\Raw</title>
<polygon fill="none" stroke="black" points="1000,-616 946,-616 946,-580 1000,-580 1000,-616"/>
<text text-anchor="middle" x="973" y="-595.1" font-family="Times Roman,serif" font-size="11.00">Raw</text>
</g>
<!-- \\Menu\\Traits\\Content -->
<g id="node10" class="node"><title>\\Menu\\Traits\\Content</title>
<polygon fill="none" stroke="black" points="681,-616 621,-616 621,-580 681,-580 681,-616"/>
<text text-anchor="middle" x="651" y="-595.1" font-family="Times Roman,serif" font-size="11.00">Content</text>
</g>
<!-- \\Menu\\Items\\Contents\\Raw&#45;&gt;\\Menu\\Traits\\Content -->
<g id="edge15" class="edge"><title>\\Menu\\Items\\Contents\\Raw&#45;&gt;\\Menu\\Traits\\Content</title>
<path fill="none" stroke="black" d="M945.824,-598C889.119,-598 757.948,-598 691.354,-598"/>
<polygon fill="none" stroke="black" points="691.242,-594.5 681.242,-598 691.242,-601.5 691.242,-594.5"/>
</g>
<!-- \\Menu\\Items\\Item -->
<g id="node7" class="node"><title>\\Menu\\Items\\Item</title>
<polygon fill="none" stroke="black" points="1000,-690 946,-690 946,-654 1000,-654 1000,-690"/>
<text text-anchor="middle" x="973" y="-669.1" font-family="Times Roman,serif" font-size="11.00">Item</text>
</g>
<!-- \\Menu\\Traits\\MenuObject -->
<g id="node11" class="node"><title>\\Menu\\Traits\\MenuObject</title>
<polygon fill="none" stroke="black" points="692,-670 610,-670 610,-634 692,-634 692,-670"/>
<text text-anchor="start" x="621" y="-657.433" font-family="Times Roman,serif" font-size="11.00">«abstract»</text>
<text text-anchor="start" x="618" y="-644.233" font-family="Times Roman,serif" font-size="11.00">MenuObject</text>
</g>
<!-- \\Menu\\Items\\Item&#45;&gt;\\Menu\\Traits\\MenuObject -->
<g id="edge9" class="edge"><title>\\Menu\\Items\\Item&#45;&gt;\\Menu\\Traits\\MenuObject</title>
<path fill="none" stroke="black" d="M945.824,-670.312C892.247,-666.984 772.194,-659.528 702.942,-655.226"/>
<polygon fill="none" stroke="black" points="702.892,-651.716 692.694,-654.59 702.458,-658.703 702.892,-651.716"/>
</g>
<!-- \\Menu\\Items\\ItemList -->
<g id="node8" class="node"><title>\\Menu\\Items\\ItemList</title>
<polygon fill="none" stroke="black" points="1003,-744 943,-744 943,-708 1003,-708 1003,-744"/>
<text text-anchor="middle" x="973" y="-723.1" font-family="Times Roman,serif" font-size="11.00">ItemList</text>
</g>
<!-- \\Menu\\Items\\ItemList&#45;&gt;\\Menu\\Traits\\MenuObject -->
<g id="edge11" class="edge"><title>\\Menu\\Items\\ItemList&#45;&gt;\\Menu\\Traits\\MenuObject</title>
<path fill="none" stroke="black" d="M942.996,-719.105C888.05,-706.477 770.679,-679.504 702.662,-663.873"/>
<polygon fill="none" stroke="black" points="703.122,-660.387 692.592,-661.558 701.554,-667.209 703.122,-660.387"/>
</g>
<!-- \\HtmlObject\\Text -->
<g id="node21" class="node"><title>\\HtmlObject\\Text</title>
<polygon fill="none" stroke="black" points="390,-312 336,-312 336,-276 390,-276 390,-312"/>
<text text-anchor="middle" x="363" y="-291.1" font-family="Times Roman,serif" font-size="11.00">Text</text>
</g>
<!-- \\Menu\\Traits\\Content&#45;&gt;\\HtmlObject\\Text -->
<g id="edge19" class="edge"><title>\\Menu\\Traits\\Content&#45;&gt;\\HtmlObject\\Text</title>
<path fill="none" stroke="black" d="M633.847,-579.894C584.824,-528.148 444,-379.5 387.191,-319.535"/>
<polygon fill="none" stroke="black" points="389.482,-316.864 380.063,-312.011 384.4,-321.678 389.482,-316.864"/>
</g>
<!-- \\HtmlObject\\Traits\\Tag -->
<g id="node19" class="node"><title>\\HtmlObject\\Traits\\Tag</title>
<polygon fill="none" stroke="black" points="259,-216 183,-216 183,-180 259,-180 259,-216"/>
<text text-anchor="start" x="191" y="-203.433" font-family="Times Roman,serif" font-size="11.00">«abstract»</text>
<text text-anchor="start" x="211.5" y="-190.233" font-family="Times Roman,serif" font-size="11.00">Tag</text>
</g>
<!-- \\Menu\\Traits\\MenuObject&#45;&gt;\\HtmlObject\\Traits\\Tag -->
<g id="edge21" class="edge"><title>\\Menu\\Traits\\MenuObject&#45;&gt;\\HtmlObject\\Traits\\Tag</title>
<path fill="none" stroke="black" d="M609.433,-656.369C569.012,-658.395 507.761,-655.323 466,-625 385.743,-566.724 335.933,-297.266 268,-225 267.351,-224.31 266.681,-223.633 265.992,-222.968"/>
<polygon fill="none" stroke="black" points="267.935,-220.032 258.008,-216.331 263.46,-225.415 267.935,-220.032"/>
</g>
<!-- \\Menu\\MenuServiceProvider -->
<g id="node12" class="node"><title>\\Menu\\MenuServiceProvider</title>
<polygon fill="none" stroke="black" points="1038,-502 908,-502 908,-466 1038,-466 1038,-502"/>
<text text-anchor="middle" x="973" y="-481.1" font-family="Times Roman,serif" font-size="11.00">MenuServiceProvider</text>
</g>
<!-- \\Illuminate\\Support\\ServiceProvider -->
<g id="node31" class="node"><title>\\Illuminate\\Support\\ServiceProvider</title>
<ellipse fill="none" stroke="black" cx="651" cy="-18" rx="184.055" ry="18.3848"/>
<text text-anchor="middle" x="651" y="-14.4" font-family="Times Roman,serif" font-size="14.00" fill="gray">\Illuminate\Support\ServiceProvider</text>
</g>
<!-- \\Menu\\MenuServiceProvider&#45;&gt;\\Illuminate\\Support\\ServiceProvider -->
<g id="edge17" class="edge"><title>\\Menu\\MenuServiceProvider&#45;&gt;\\Illuminate\\Support\\ServiceProvider</title>
<path fill="none" stroke="black" d="M917.293,-465.837C913.833,-463.266 910.675,-460.337 908,-457 792.564,-312.981 967.39,-177.629 836,-48 829.84,-41.9228 822.964,-36.7845 815.586,-32.4556"/>
<polygon fill="none" stroke="black" points="817.181,-29.3398 806.708,-27.7379 813.896,-35.5212 817.181,-29.3398"/>
</g>
<!-- \\Menu\\MenuHandler -->
<g id="node13" class="node"><title>\\Menu\\MenuHandler</title>
<polygon fill="none" stroke="black" points="1017,-448 929,-448 929,-412 1017,-412 1017,-448"/>
<text text-anchor="middle" x="973" y="-427.1" font-family="Times Roman,serif" font-size="11.00">MenuHandler</text>
</g>
<!-- \\Menu\\Menu -->
<g id="node14" class="node"><title>\\Menu\\Menu</title>
<polygon fill="none" stroke="black" points="1000,-394 946,-394 946,-358 1000,-358 1000,-394"/>
<text text-anchor="middle" x="973" y="-373.1" font-family="Times Roman,serif" font-size="11.00">Menu</text>
</g>
<!-- \\HtmlObject\\Traits\\Helpers -->
<g id="node17" class="node"><title>\\HtmlObject\\Traits\\Helpers</title>
<polygon fill="none" stroke="black" points="250,-270 192,-270 192,-234 250,-234 250,-270"/>
<text text-anchor="middle" x="221" y="-249.1" font-family="Times Roman,serif" font-size="11.00">Helpers</text>
</g>
<!-- \\HtmlObject\\Traits\\TreeObject -->
<g id="node18" class="node"><title>\\HtmlObject\\Traits\\TreeObject</title>
<polygon fill="none" stroke="black" points="109,-216 33,-216 33,-180 109,-180 109,-216"/>
<text text-anchor="start" x="41" y="-203.433" font-family="Times Roman,serif" font-size="11.00">«abstract»</text>
<text text-anchor="start" x="41.5" y="-190.233" font-family="Times Roman,serif" font-size="11.00">TreeObject</text>
</g>
<!-- \\HtmlObject\\Traits\\Tag&#45;&gt;\\HtmlObject\\Traits\\TreeObject -->
<g id="edge27" class="edge"><title>\\HtmlObject\\Traits\\Tag&#45;&gt;\\HtmlObject\\Traits\\TreeObject</title>
<path fill="none" stroke="black" d="M182.371,-198C163.287,-198 140.057,-198 119.76,-198"/>
<polygon fill="none" stroke="black" points="119.758,-194.5 109.758,-198 119.758,-201.5 119.758,-194.5"/>
</g>
<!-- \\HtmlObject\\Link&#45;&gt;\\HtmlObject\\Traits\\Tag -->
<g id="edge23" class="edge"><title>\\HtmlObject\\Link&#45;&gt;\\HtmlObject\\Traits\\Tag</title>
<path fill="none" stroke="black" d="M335.957,-232.001C317.171,-226.445 291.617,-218.887 269.372,-212.307"/>
<polygon fill="none" stroke="black" points="270.328,-208.94 259.746,-209.46 268.343,-215.653 270.328,-208.94"/>
</g>
<!-- \\HtmlObject\\Text&#45;&gt;\\HtmlObject\\Traits\\Tag -->
<g id="edge25" class="edge"><title>\\HtmlObject\\Text&#45;&gt;\\HtmlObject\\Traits\\Tag</title>
<path fill="none" stroke="black" d="M339.677,-275.985C320.741,-261.624 293.15,-241.291 268,-225 266.139,-223.795 264.222,-222.582 262.276,-221.375"/>
<polygon fill="none" stroke="black" points="264.002,-218.328 253.635,-216.145 260.378,-224.317 264.002,-218.328"/>
</g>
<!-- \\HtmlObject\\Image -->
<g id="node22" class="node"><title>\\HtmlObject\\Image</title>
<polygon fill="none" stroke="black" points="390,-204 336,-204 336,-168 390,-168 390,-204"/>
<text text-anchor="middle" x="363" y="-183.1" font-family="Times Roman,serif" font-size="11.00">Image</text>
</g>
<!-- \\HtmlObject\\Image&#45;&gt;\\HtmlObject\\Traits\\Tag -->
<g id="edge29" class="edge"><title>\\HtmlObject\\Image&#45;&gt;\\HtmlObject\\Traits\\Tag</title>
<path fill="none" stroke="black" d="M335.957,-188.285C317.339,-189.859 292.075,-191.994 269.971,-193.862"/>
<polygon fill="none" stroke="black" points="269.416,-190.396 259.746,-194.726 270.006,-197.371 269.416,-190.396"/>
</g>
<!-- \\HtmlObject\\Lists -->
<g id="node23" class="node"><title>\\HtmlObject\\Lists</title>
<polygon fill="none" stroke="black" points="678,-150 624,-150 624,-114 678,-114 678,-150"/>
<text text-anchor="middle" x="651" y="-129.1" font-family="Times Roman,serif" font-size="11.00">Lists</text>
</g>
<!-- \\HtmlObject\\Element -->
<g id="node25" class="node"><title>\\HtmlObject\\Element</title>
<polygon fill="none" stroke="black" points="394,-150 332,-150 332,-114 394,-114 394,-150"/>
<text text-anchor="middle" x="363" y="-129.1" font-family="Times Roman,serif" font-size="11.00">Element</text>
</g>
<!-- \\HtmlObject\\Lists&#45;&gt;\\HtmlObject\\Element -->
<g id="edge31" class="edge"><title>\\HtmlObject\\Lists&#45;&gt;\\HtmlObject\\Element</title>
<path fill="none" stroke="black" d="M623.906,-132C573.313,-132 464.199,-132 404.352,-132"/>
<polygon fill="none" stroke="black" points="404.128,-128.5 394.128,-132 404.128,-135.5 404.128,-128.5"/>
</g>
<!-- \\HtmlObject\\Input -->
<g id="node24" class="node"><title>\\HtmlObject\\Input</title>
<polygon fill="none" stroke="black" points="390,-96 336,-96 336,-60 390,-60 390,-96"/>
<text text-anchor="middle" x="363" y="-75.1" font-family="Times Roman,serif" font-size="11.00">Input</text>
</g>
<!-- \\HtmlObject\\Input&#45;&gt;\\HtmlObject\\Traits\\Tag -->
<g id="edge33" class="edge"><title>\\HtmlObject\\Input&#45;&gt;\\HtmlObject\\Traits\\Tag</title>
<path fill="none" stroke="black" d="M341.433,-96.2254C317.105,-116.784 277.405,-150.334 250.286,-173.251"/>
<polygon fill="none" stroke="black" points="247.683,-170.868 242.304,-179.996 252.202,-176.215 247.683,-170.868"/>
</g>
<!-- \\HtmlObject\\Element&#45;&gt;\\HtmlObject\\Traits\\Tag -->
<g id="edge35" class="edge"><title>\\HtmlObject\\Element&#45;&gt;\\HtmlObject\\Traits\\Tag</title>
<path fill="none" stroke="black" d="M331.837,-146.484C313.43,-155.04 289.741,-166.05 268.991,-175.694"/>
<polygon fill="none" stroke="black" points="267.287,-172.627 259.694,-180.016 270.237,-178.975 267.287,-172.627"/>
</g>
</g>
</svg>
