<?xml version="1.0" encoding="UTF-8" standalone="no"?>
<!DOCTYPE svg PUBLIC "-//W3C//DTD SVG 1.1//EN"
 "http://www.w3.org/Graphics/SVG/1.1/DTD/svg11.dtd">
<!-- Generated by graphviz version 2.26.3 (20100126.1600)
 -->
<!-- Title: G Pages: 1 -->
<svg width="1071pt" height="1738pt"
 viewBox="0.00 0.00 1071.00 1738.00" xmlns="http://www.w3.org/2000/svg" xmlns:xlink="http://www.w3.org/1999/xlink">
<g id="graph1" class="graph" transform="scale(1 1) rotate(0) translate(4 1734)">
<title>G</title>
<polygon fill="white" stroke="white" points="-4,5 -4,-1734 1068,-1734 1068,5 -4,5"/>
<g id="graph2" class="cluster"><title>cluster_Global</title>
<polyline fill="none" stroke="gray" points="20,-98 1043,-98 "/>
<path fill="none" stroke="gray" d="M1043,-98C1049,-98 1055,-104 1055,-110"/>
<polyline fill="none" stroke="gray" points="1055,-110 1055,-1710 "/>
<path fill="none" stroke="gray" d="M1055,-1710C1055,-1716 1049,-1722 1043,-1722"/>
<polyline fill="none" stroke="gray" points="1043,-1722 20,-1722 "/>
<path fill="none" stroke="gray" d="M20,-1722C14,-1722 8,-1716 8,-1710"/>
<polyline fill="none" stroke="gray" points="8,-1710 8,-110 "/>
<path fill="none" stroke="gray" d="M8,-110C8,-104 14,-98 20,-98"/>
<text text-anchor="middle" x="531.5" y="-1708.1" font-family="Times Roman,serif" font-size="11.00" fill="gray">\</text>
</g>
<g id="graph3" class="cluster"><title>cluster_\Menu</title>
<polyline fill="none" stroke="gray" points="605,-1238 1034,-1238 "/>
<path fill="none" stroke="gray" d="M1034,-1238C1040,-1238 1046,-1244 1046,-1250"/>
<polyline fill="none" stroke="gray" points="1046,-1250 1046,-1680 "/>
<path fill="none" stroke="gray" d="M1046,-1680C1046,-1686 1040,-1692 1034,-1692"/>
<polyline fill="none" stroke="gray" points="1034,-1692 605,-1692 "/>
<path fill="none" stroke="gray" d="M605,-1692C599,-1692 593,-1686 593,-1680"/>
<polyline fill="none" stroke="gray" points="593,-1680 593,-1250 "/>
<path fill="none" stroke="gray" d="M593,-1250C593,-1244 599,-1238 605,-1238"/>
<text text-anchor="middle" x="819.5" y="-1678.1" font-family="Times Roman,serif" font-size="11.00" fill="gray">Menu</text>
</g>
<g id="graph4" class="cluster"><title>cluster_\Menu\Traits</title>
<polyline fill="none" stroke="gray" points="613,-1460 689,-1460 "/>
<path fill="none" stroke="gray" d="M689,-1460C695,-1460 701,-1466 701,-1472"/>
<polyline fill="none" stroke="gray" points="701,-1472 701,-1576 "/>
<path fill="none" stroke="gray" d="M701,-1576C701,-1582 695,-1588 689,-1588"/>
<polyline fill="none" stroke="gray" points="689,-1588 613,-1588 "/>
<path fill="none" stroke="gray" d="M613,-1588C607,-1588 601,-1582 601,-1576"/>
<polyline fill="none" stroke="gray" points="601,-1576 601,-1472 "/>
<path fill="none" stroke="gray" d="M601,-1472C601,-1466 607,-1460 613,-1460"/>
<text text-anchor="middle" x="651" y="-1574.1" font-family="Times Roman,serif" font-size="11.00" fill="gray">Traits</text>
</g>
<g id="graph5" class="cluster"><title>cluster_\Menu\Items</title>
<polyline fill="none" stroke="gray" points="942,-1398 1004,-1398 "/>
<path fill="none" stroke="gray" d="M1004,-1398C1010,-1398 1016,-1404 1016,-1410"/>
<polyline fill="none" stroke="gray" points="1016,-1410 1016,-1650 "/>
<path fill="none" stroke="gray" d="M1016,-1650C1016,-1656 1010,-1662 1004,-1662"/>
<polyline fill="none" stroke="gray" points="1004,-1662 942,-1662 "/>
<path fill="none" stroke="gray" d="M942,-1662C936,-1662 930,-1656 930,-1650"/>
<polyline fill="none" stroke="gray" points="930,-1650 930,-1410 "/>
<path fill="none" stroke="gray" d="M930,-1410C930,-1404 936,-1398 942,-1398"/>
<text text-anchor="middle" x="973" y="-1648.1" font-family="Times Roman,serif" font-size="11.00" fill="gray">Items</text>
</g>
<g id="graph6" class="cluster"><title>cluster_\Menu\Items\Contents</title>
<polyline fill="none" stroke="gray" points="950,-1406 996,-1406 "/>
<path fill="none" stroke="gray" d="M996,-1406C1002,-1406 1008,-1412 1008,-1418"/>
<polyline fill="none" stroke="gray" points="1008,-1418 1008,-1522 "/>
<path fill="none" stroke="gray" d="M1008,-1522C1008,-1528 1002,-1534 996,-1534"/>
<polyline fill="none" stroke="gray" points="996,-1534 950,-1534 "/>
<path fill="none" stroke="gray" d="M950,-1534C944,-1534 938,-1528 938,-1522"/>
<polyline fill="none" stroke="gray" points="938,-1522 938,-1418 "/>
<path fill="none" stroke="gray" d="M938,-1418C938,-1412 944,-1406 950,-1406"/>
<text text-anchor="middle" x="973" y="-1520.1" font-family="Times Roman,serif" font-size="11.00" fill="gray">Contents</text>
</g>
<g id="graph7" class="cluster"><title>cluster_\HtmlObject</title>
<polyline fill="none" stroke="gray" points="28,-940 674,-940 "/>
<path fill="none" stroke="gray" d="M674,-940C680,-940 686,-946 686,-952"/>
<polyline fill="none" stroke="gray" points="686,-952 686,-1218 "/>
<path fill="none" stroke="gray" d="M686,-1218C686,-1224 680,-1230 674,-1230"/>
<polyline fill="none" stroke="gray" points="674,-1230 28,-1230 "/>
<path fill="none" stroke="gray" d="M28,-1230C22,-1230 16,-1224 16,-1218"/>
<polyline fill="none" stroke="gray" points="16,-1218 16,-952 "/>
<path fill="none" stroke="gray" d="M16,-952C16,-946 22,-940 28,-940"/>
<text text-anchor="middle" x="351" y="-1216.1" font-family="Times Roman,serif" font-size="11.00" fill="gray">HtmlObject</text>
</g>
<g id="graph8" class="cluster"><title>cluster_\HtmlObject\Traits</title>
<polyline fill="none" stroke="gray" points="36,-1060 256,-1060 "/>
<path fill="none" stroke="gray" d="M256,-1060C262,-1060 268,-1066 268,-1072"/>
<polyline fill="none" stroke="gray" points="268,-1072 268,-1176 "/>
<path fill="none" stroke="gray" d="M268,-1176C268,-1182 262,-1188 256,-1188"/>
<polyline fill="none" stroke="gray" points="256,-1188 36,-1188 "/>
<path fill="none" stroke="gray" d="M36,-1188C30,-1188 24,-1182 24,-1176"/>
<polyline fill="none" stroke="gray" points="24,-1176 24,-1072 "/>
<path fill="none" stroke="gray" d="M24,-1072C24,-1066 30,-1060 36,-1060"/>
<text text-anchor="middle" x="146" y="-1174.1" font-family="Times Roman,serif" font-size="11.00" fill="gray">Traits</text>
</g>
<g id="graph9" class="cluster"><title>cluster_\Underscore</title>
<polyline fill="none" stroke="gray" points="588,-106 1035,-106 "/>
<path fill="none" stroke="gray" d="M1035,-106C1041,-106 1047,-112 1047,-118"/>
<polyline fill="none" stroke="gray" points="1047,-118 1047,-920 "/>
<path fill="none" stroke="gray" d="M1047,-920C1047,-926 1041,-932 1035,-932"/>
<polyline fill="none" stroke="gray" points="1035,-932 588,-932 "/>
<path fill="none" stroke="gray" d="M588,-932C582,-932 576,-926 576,-920"/>
<polyline fill="none" stroke="gray" points="576,-920 576,-118 "/>
<path fill="none" stroke="gray" d="M576,-118C576,-112 582,-106 588,-106"/>
<text text-anchor="middle" x="811.5" y="-918.1" font-family="Times Roman,serif" font-size="11.00" fill="gray">Underscore</text>
</g>
<g id="graph10" class="cluster"><title>cluster_\Underscore\Traits</title>
<polyline fill="none" stroke="gray" points="616,-693 686,-693 "/>
<path fill="none" stroke="gray" d="M686,-693C692,-693 698,-699 698,-705"/>
<polyline fill="none" stroke="gray" points="698,-705 698,-755 "/>
<path fill="none" stroke="gray" d="M698,-755C698,-761 692,-767 686,-767"/>
<polyline fill="none" stroke="gray" points="686,-767 616,-767 "/>
<path fill="none" stroke="gray" d="M616,-767C610,-767 604,-761 604,-755"/>
<polyline fill="none" stroke="gray" points="604,-755 604,-705 "/>
<path fill="none" stroke="gray" d="M604,-705C604,-699 610,-693 616,-693"/>
<text text-anchor="middle" x="651" y="-753.1" font-family="Times Roman,serif" font-size="11.00" fill="gray">Traits</text>
</g>
<g id="graph11" class="cluster"><title>cluster_\Underscore\Methods</title>
<polyline fill="none" stroke="gray" points="596,-160 1027,-160 "/>
<path fill="none" stroke="gray" d="M1027,-160C1033,-160 1039,-166 1039,-172"/>
<polyline fill="none" stroke="gray" points="1039,-172 1039,-438 "/>
<path fill="none" stroke="gray" d="M1039,-438C1039,-444 1033,-450 1027,-450"/>
<polyline fill="none" stroke="gray" points="1027,-450 596,-450 "/>
<path fill="none" stroke="gray" d="M596,-450C590,-450 584,-444 584,-438"/>
<polyline fill="none" stroke="gray" points="584,-438 584,-172 "/>
<path fill="none" stroke="gray" d="M584,-172C584,-166 590,-160 596,-160"/>
<text text-anchor="middle" x="811.5" y="-436.1" font-family="Times Roman,serif" font-size="11.00" fill="gray">Methods</text>
</g>
<g id="graph12" class="cluster"><title>cluster_\Underscore\Types</title>
<polyline fill="none" stroke="gray" points="943,-612 1003,-612 "/>
<path fill="none" stroke="gray" d="M1003,-612C1009,-612 1015,-618 1015,-624"/>
<polyline fill="none" stroke="gray" points="1015,-624 1015,-890 "/>
<path fill="none" stroke="gray" d="M1015,-890C1015,-896 1009,-902 1003,-902"/>
<polyline fill="none" stroke="gray" points="1003,-902 943,-902 "/>
<path fill="none" stroke="gray" d="M943,-902C937,-902 931,-896 931,-890"/>
<polyline fill="none" stroke="gray" points="931,-890 931,-624 "/>
<path fill="none" stroke="gray" d="M931,-624C931,-618 937,-612 943,-612"/>
<text text-anchor="middle" x="973" y="-888.1" font-family="Times Roman,serif" font-size="11.00" fill="gray">Types</text>
</g>
<!-- \\Menu\\Traits\\MenuObject -->
<g id="node4" class="node"><title>\\Menu\\Traits\\MenuObject</title>
<polygon fill="none" stroke="black" points="692,-1558 610,-1558 610,-1522 692,-1522 692,-1558"/>
<text text-anchor="start" x="621" y="-1545.43" font-family="Times Roman,serif" font-size="11.00">«abstract»</text>
<text text-anchor="start" x="618" y="-1532.23" font-family="Times Roman,serif" font-size="11.00">MenuObject</text>
</g>
<!-- \\HtmlObject\\Traits\\Tag -->
<g id="node19" class="node"><title>\\HtmlObject\\Traits\\Tag</title>
<polygon fill="none" stroke="black" points="259,-1104 183,-1104 183,-1068 259,-1068 259,-1104"/>
<text text-anchor="start" x="191" y="-1091.43" font-family="Times Roman,serif" font-size="11.00">«abstract»</text>
<text text-anchor="start" x="211.5" y="-1078.23" font-family="Times Roman,serif" font-size="11.00">Tag</text>
</g>
<!-- \\Menu\\Traits\\MenuObject&#45;&gt;\\HtmlObject\\Traits\\Tag -->
<g id="edge13" class="edge"><title>\\Menu\\Traits\\MenuObject&#45;&gt;\\HtmlObject\\Traits\\Tag</title>
<path fill="none" stroke="black" d="M609.433,-1544.37C569.012,-1546.39 507.761,-1543.32 466,-1513 385.743,-1454.72 335.933,-1185.27 268,-1113 267.351,-1112.31 266.681,-1111.63 265.992,-1110.97"/>
<polygon fill="none" stroke="black" points="267.935,-1108.03 258.008,-1104.33 263.46,-1113.41 267.935,-1108.03"/>
</g>
<!-- \\Menu\\Traits\\Content -->
<g id="node5" class="node"><title>\\Menu\\Traits\\Content</title>
<polygon fill="none" stroke="black" points="681,-1504 621,-1504 621,-1468 681,-1468 681,-1504"/>
<text text-anchor="middle" x="651" y="-1483.1" font-family="Times Roman,serif" font-size="11.00">Content</text>
</g>
<!-- \\HtmlObject\\Text -->
<g id="node24" class="node"><title>\\HtmlObject\\Text</title>
<polygon fill="none" stroke="black" points="390,-1146 336,-1146 336,-1110 390,-1110 390,-1146"/>
<text text-anchor="middle" x="363" y="-1125.1" font-family="Times Roman,serif" font-size="11.00">Text</text>
</g>
<!-- \\Menu\\Traits\\Content&#45;&gt;\\HtmlObject\\Text -->
<g id="edge17" class="edge"><title>\\Menu\\Traits\\Content&#45;&gt;\\HtmlObject\\Text</title>
<path fill="none" stroke="black" d="M635.435,-1467.74C603.022,-1429.51 526.288,-1337.99 466,-1258 432.382,-1213.4 431.337,-1196.54 394,-1155 393.499,-1154.44 392.987,-1153.89 392.466,-1153.33"/>
<polygon fill="none" stroke="black" points="394.877,-1150.79 385.307,-1146.25 389.954,-1155.77 394.877,-1150.79"/>
</g>
<!-- \\Menu\\Items\\Contents\\Raw -->
<g id="node8" class="node"><title>\\Menu\\Items\\Contents\\Raw</title>
<polygon fill="none" stroke="black" points="1000,-1504 946,-1504 946,-1468 1000,-1468 1000,-1504"/>
<text text-anchor="middle" x="973" y="-1483.1" font-family="Times Roman,serif" font-size="11.00">Raw</text>
</g>
<!-- \\Menu\\Items\\Contents\\Raw&#45;&gt;\\Menu\\Traits\\Content -->
<g id="edge21" class="edge"><title>\\Menu\\Items\\Contents\\Raw&#45;&gt;\\Menu\\Traits\\Content</title>
<path fill="none" stroke="black" d="M945.824,-1486C889.119,-1486 757.948,-1486 691.354,-1486"/>
<polygon fill="none" stroke="black" points="691.242,-1482.5 681.242,-1486 691.242,-1489.5 691.242,-1482.5"/>
</g>
<!-- \\Menu\\Items\\Contents\\Link -->
<g id="node9" class="node"><title>\\Menu\\Items\\Contents\\Link</title>
<polygon fill="none" stroke="black" points="1000,-1450 946,-1450 946,-1414 1000,-1414 1000,-1450"/>
<text text-anchor="middle" x="973" y="-1429.1" font-family="Times Roman,serif" font-size="11.00">Link</text>
</g>
<!-- \\HtmlObject\\Link -->
<g id="node21" class="node"><title>\\HtmlObject\\Link</title>
<polygon fill="none" stroke="black" points="390,-1092 336,-1092 336,-1056 390,-1056 390,-1092"/>
<text text-anchor="middle" x="363" y="-1071.1" font-family="Times Roman,serif" font-size="11.00">Link</text>
</g>
<!-- \\Menu\\Items\\Contents\\Link&#45;&gt;\\HtmlObject\\Link -->
<g id="edge25" class="edge"><title>\\Menu\\Items\\Contents\\Link&#45;&gt;\\HtmlObject\\Link</title>
<path fill="none" stroke="black" d="M945.9,-1424.34C934.026,-1420.6 920.076,-1415.68 908,-1410 702.757,-1313.52 478.487,-1157.4 395.887,-1097.99"/>
<polygon fill="none" stroke="black" points="397.815,-1095.07 387.657,-1092.05 393.72,-1100.74 397.815,-1095.07"/>
</g>
<!-- \\Menu\\Items\\ItemList -->
<g id="node10" class="node"><title>\\Menu\\Items\\ItemList</title>
<polygon fill="none" stroke="black" points="1003,-1632 943,-1632 943,-1596 1003,-1596 1003,-1632"/>
<text text-anchor="middle" x="973" y="-1611.1" font-family="Times Roman,serif" font-size="11.00">ItemList</text>
</g>
<!-- \\Menu\\Items\\ItemList&#45;&gt;\\Menu\\Traits\\MenuObject -->
<g id="edge15" class="edge"><title>\\Menu\\Items\\ItemList&#45;&gt;\\Menu\\Traits\\MenuObject</title>
<path fill="none" stroke="black" d="M942.996,-1607.1C888.05,-1594.48 770.679,-1567.5 702.662,-1551.87"/>
<polygon fill="none" stroke="black" points="703.122,-1548.39 692.592,-1549.56 701.554,-1555.21 703.122,-1548.39"/>
</g>
<!-- \\Menu\\Items\\Item -->
<g id="node11" class="node"><title>\\Menu\\Items\\Item</title>
<polygon fill="none" stroke="black" points="1000,-1578 946,-1578 946,-1542 1000,-1542 1000,-1578"/>
<text text-anchor="middle" x="973" y="-1557.1" font-family="Times Roman,serif" font-size="11.00">Item</text>
</g>
<!-- \\Menu\\Items\\Item&#45;&gt;\\Menu\\Traits\\MenuObject -->
<g id="edge31" class="edge"><title>\\Menu\\Items\\Item&#45;&gt;\\Menu\\Traits\\MenuObject</title>
<path fill="none" stroke="black" d="M945.824,-1558.31C892.247,-1554.98 772.194,-1547.53 702.942,-1543.23"/>
<polygon fill="none" stroke="black" points="702.892,-1539.72 692.694,-1542.59 702.458,-1546.7 702.892,-1539.72"/>
</g>
<!-- \\Menu\\MenuHandler -->
<g id="node12" class="node"><title>\\Menu\\MenuHandler</title>
<polygon fill="none" stroke="black" points="1017,-1390 929,-1390 929,-1354 1017,-1354 1017,-1390"/>
<text text-anchor="middle" x="973" y="-1369.1" font-family="Times Roman,serif" font-size="11.00">MenuHandler</text>
</g>
<!-- \\Menu\\MenuServiceProvider -->
<g id="node13" class="node"><title>\\Menu\\MenuServiceProvider</title>
<polygon fill="none" stroke="black" points="1038,-1336 908,-1336 908,-1300 1038,-1300 1038,-1336"/>
<text text-anchor="middle" x="973" y="-1315.1" font-family="Times Roman,serif" font-size="11.00">MenuServiceProvider</text>
</g>
<!-- \\Illuminate\\Support\\ServiceProvider -->
<g id="node50" class="node"><title>\\Illuminate\\Support\\ServiceProvider</title>
<ellipse fill="none" stroke="black" cx="651" cy="-72" rx="184.055" ry="18.3848"/>
<text text-anchor="middle" x="651" y="-68.4" font-family="Times Roman,serif" font-size="14.00" fill="gray">\Illuminate\Support\ServiceProvider</text>
</g>
<!-- \\Menu\\MenuServiceProvider&#45;&gt;\\Illuminate\\Support\\ServiceProvider -->
<g id="edge19" class="edge"><title>\\Menu\\MenuServiceProvider&#45;&gt;\\Illuminate\\Support\\ServiceProvider</title>
<path fill="none" stroke="black" d="M916.583,-1299.93C913.335,-1297.34 910.415,-1294.38 908,-1291 761.109,-1085.34 979.527,-364.019 836,-156 813.935,-124.021 776.611,-104.01 741.242,-91.589"/>
<polygon fill="none" stroke="black" points="741.926,-88.1276 731.333,-88.2831 739.711,-94.7679 741.926,-88.1276"/>
</g>
<!-- \\Menu\\Menu -->
<g id="node14" class="node"><title>\\Menu\\Menu</title>
<polygon fill="none" stroke="black" points="1000,-1282 946,-1282 946,-1246 1000,-1246 1000,-1282"/>
<text text-anchor="middle" x="973" y="-1261.1" font-family="Times Roman,serif" font-size="11.00">Menu</text>
</g>
<!-- \\HtmlObject\\Traits\\TreeObject -->
<g id="node17" class="node"><title>\\HtmlObject\\Traits\\TreeObject</title>
<polygon fill="none" stroke="black" points="109,-1104 33,-1104 33,-1068 109,-1068 109,-1104"/>
<text text-anchor="start" x="41" y="-1091.43" font-family="Times Roman,serif" font-size="11.00">«abstract»</text>
<text text-anchor="start" x="41.5" y="-1078.23" font-family="Times Roman,serif" font-size="11.00">TreeObject</text>
</g>
<!-- \\HtmlObject\\Traits\\Helpers -->
<g id="node18" class="node"><title>\\HtmlObject\\Traits\\Helpers</title>
<polygon fill="none" stroke="black" points="250,-1158 192,-1158 192,-1122 250,-1122 250,-1158"/>
<text text-anchor="middle" x="221" y="-1137.1" font-family="Times Roman,serif" font-size="11.00">Helpers</text>
</g>
<!-- \\HtmlObject\\Traits\\Tag&#45;&gt;\\HtmlObject\\Traits\\TreeObject -->
<g id="edge39" class="edge"><title>\\HtmlObject\\Traits\\Tag&#45;&gt;\\HtmlObject\\Traits\\TreeObject</title>
<path fill="none" stroke="black" d="M182.371,-1086C163.287,-1086 140.057,-1086 119.76,-1086"/>
<polygon fill="none" stroke="black" points="119.758,-1082.5 109.758,-1086 119.758,-1089.5 119.758,-1082.5"/>
</g>
<!-- \\HtmlObject\\Lists -->
<g id="node20" class="node"><title>\\HtmlObject\\Lists</title>
<polygon fill="none" stroke="black" points="678,-984 624,-984 624,-948 678,-948 678,-984"/>
<text text-anchor="middle" x="651" y="-963.1" font-family="Times Roman,serif" font-size="11.00">Lists</text>
</g>
<!-- \\HtmlObject\\Element -->
<g id="node22" class="node"><title>\\HtmlObject\\Element</title>
<polygon fill="none" stroke="black" points="394,-984 332,-984 332,-948 394,-948 394,-984"/>
<text text-anchor="middle" x="363" y="-963.1" font-family="Times Roman,serif" font-size="11.00">Element</text>
</g>
<!-- \\HtmlObject\\Lists&#45;&gt;\\HtmlObject\\Element -->
<g id="edge23" class="edge"><title>\\HtmlObject\\Lists&#45;&gt;\\HtmlObject\\Element</title>
<path fill="none" stroke="black" d="M623.906,-966C573.313,-966 464.199,-966 404.352,-966"/>
<polygon fill="none" stroke="black" points="404.128,-962.5 394.128,-966 404.128,-969.5 404.128,-962.5"/>
</g>
<!-- \\HtmlObject\\Link&#45;&gt;\\HtmlObject\\Traits\\Tag -->
<g id="edge27" class="edge"><title>\\HtmlObject\\Link&#45;&gt;\\HtmlObject\\Traits\\Tag</title>
<path fill="none" stroke="black" d="M335.957,-1076.29C317.339,-1077.86 292.075,-1079.99 269.971,-1081.86"/>
<polygon fill="none" stroke="black" points="269.416,-1078.4 259.746,-1082.73 270.006,-1085.37 269.416,-1078.4"/>
</g>
<!-- \\HtmlObject\\Element&#45;&gt;\\HtmlObject\\Traits\\Tag -->
<g id="edge29" class="edge"><title>\\HtmlObject\\Element&#45;&gt;\\HtmlObject\\Traits\\Tag</title>
<path fill="none" stroke="black" d="M341.433,-984.225C317.105,-1004.78 277.405,-1038.33 250.286,-1061.25"/>
<polygon fill="none" stroke="black" points="247.683,-1058.87 242.304,-1068 252.202,-1064.21 247.683,-1058.87"/>
</g>
<!-- \\HtmlObject\\Input -->
<g id="node23" class="node"><title>\\HtmlObject\\Input</title>
<polygon fill="none" stroke="black" points="390,-1038 336,-1038 336,-1002 390,-1002 390,-1038"/>
<text text-anchor="middle" x="363" y="-1017.1" font-family="Times Roman,serif" font-size="11.00">Input</text>
</g>
<!-- \\HtmlObject\\Input&#45;&gt;\\HtmlObject\\Traits\\Tag -->
<g id="edge33" class="edge"><title>\\HtmlObject\\Input&#45;&gt;\\HtmlObject\\Traits\\Tag</title>
<path fill="none" stroke="black" d="M335.957,-1032.57C317.087,-1041.34 291.387,-1053.28 269.073,-1063.66"/>
<polygon fill="none" stroke="black" points="267.34,-1060.6 259.746,-1067.99 270.29,-1066.95 267.34,-1060.6"/>
</g>
<!-- \\HtmlObject\\Text&#45;&gt;\\HtmlObject\\Traits\\Tag -->
<g id="edge35" class="edge"><title>\\HtmlObject\\Text&#45;&gt;\\HtmlObject\\Traits\\Tag</title>
<path fill="none" stroke="black" d="M335.957,-1120C317.171,-1114.44 291.617,-1106.89 269.372,-1100.31"/>
<polygon fill="none" stroke="black" points="270.328,-1096.94 259.746,-1097.46 268.343,-1103.65 270.328,-1096.94"/>
</g>
<!-- \\HtmlObject\\Image -->
<g id="node25" class="node"><title>\\HtmlObject\\Image</title>
<polygon fill="none" stroke="black" points="390,-1200 336,-1200 336,-1164 390,-1164 390,-1200"/>
<text text-anchor="middle" x="363" y="-1179.1" font-family="Times Roman,serif" font-size="11.00">Image</text>
</g>
<!-- \\HtmlObject\\Image&#45;&gt;\\HtmlObject\\Traits\\Tag -->
<g id="edge37" class="edge"><title>\\HtmlObject\\Image&#45;&gt;\\HtmlObject\\Traits\\Tag</title>
<path fill="none" stroke="black" d="M339.677,-1163.99C320.741,-1149.62 293.15,-1129.29 268,-1113 266.139,-1111.79 264.222,-1110.58 262.276,-1109.37"/>
<polygon fill="none" stroke="black" points="264.002,-1106.33 253.635,-1104.15 260.378,-1112.32 264.002,-1106.33"/>
</g>
<!-- \\Underscore\\Traits\\Repository -->
<g id="node28" class="node"><title>\\Underscore\\Traits\\Repository</title>
<polygon fill="none" stroke="black" points="689,-737 613,-737 613,-701 689,-701 689,-737"/>
<text text-anchor="start" x="621" y="-724.433" font-family="Times Roman,serif" font-size="11.00">«abstract»</text>
<text text-anchor="start" x="622" y="-711.233" font-family="Times Roman,serif" font-size="11.00">Repository</text>
</g>
<!-- \\Underscore\\Methods\\NumberMethods -->
<g id="node30" class="node"><title>\\Underscore\\Methods\\NumberMethods</title>
<polygon fill="none" stroke="black" points="1027,-420 919,-420 919,-384 1027,-384 1027,-420"/>
<text text-anchor="middle" x="973" y="-399.1" font-family="Times Roman,serif" font-size="11.00">NumberMethods</text>
</g>
<!-- \\Underscore\\Methods\\CollectionMethods -->
<g id="node31" class="node"><title>\\Underscore\\Methods\\CollectionMethods</title>
<polygon fill="none" stroke="black" points="709,-339 593,-339 593,-303 709,-303 709,-339"/>
<text text-anchor="start" x="621" y="-326.433" font-family="Times Roman,serif" font-size="11.00">«abstract»</text>
<text text-anchor="start" x="601" y="-313.233" font-family="Times Roman,serif" font-size="11.00">CollectionMethods</text>
</g>
<!-- \\Underscore\\Methods\\ObjectMethods -->
<g id="node32" class="node"><title>\\Underscore\\Methods\\ObjectMethods</title>
<polygon fill="none" stroke="black" points="1022,-312 924,-312 924,-276 1022,-276 1022,-312"/>
<text text-anchor="middle" x="973" y="-291.1" font-family="Times Roman,serif" font-size="11.00">ObjectMethods</text>
</g>
<!-- \\Underscore\\Methods\\ObjectMethods&#45;&gt;\\Underscore\\Methods\\CollectionMethods -->
<g id="edge41" class="edge"><title>\\Underscore\\Methods\\ObjectMethods&#45;&gt;\\Underscore\\Methods\\CollectionMethods</title>
<path fill="none" stroke="black" d="M923.393,-298.16C868.944,-302.725 781.155,-310.086 720.009,-315.214"/>
<polygon fill="none" stroke="black" points="719.348,-311.757 709.676,-316.08 719.933,-318.732 719.348,-311.757"/>
</g>
<!-- \\Underscore\\Methods\\ArraysMethods -->
<g id="node33" class="node"><title>\\Underscore\\Methods\\ArraysMethods</title>
<polygon fill="none" stroke="black" points="1022,-366 924,-366 924,-330 1022,-330 1022,-366"/>
<text text-anchor="middle" x="973" y="-345.1" font-family="Times Roman,serif" font-size="11.00">ArraysMethods</text>
</g>
<!-- \\Underscore\\Methods\\ArraysMethods&#45;&gt;\\Underscore\\Methods\\CollectionMethods -->
<g id="edge43" class="edge"><title>\\Underscore\\Methods\\ArraysMethods&#45;&gt;\\Underscore\\Methods\\CollectionMethods</title>
<path fill="none" stroke="black" d="M923.393,-343.84C868.944,-339.275 781.155,-331.914 720.009,-326.786"/>
<polygon fill="none" stroke="black" points="719.933,-323.268 709.676,-325.92 719.348,-330.243 719.933,-323.268"/>
</g>
<!-- \\Underscore\\Methods\\StringMethods -->
<g id="node34" class="node"><title>\\Underscore\\Methods\\StringMethods</title>
<polygon fill="none" stroke="black" points="1021,-258 925,-258 925,-222 1021,-222 1021,-258"/>
<text text-anchor="middle" x="973" y="-237.1" font-family="Times Roman,serif" font-size="11.00">StringMethods</text>
</g>
<!-- \\Illuminate\\Support\\Str -->
<g id="node64" class="node"><title>\\Illuminate\\Support\\Str</title>
<ellipse fill="none" stroke="black" cx="651" cy="-18" rx="123.243" ry="18.3848"/>
<text text-anchor="middle" x="651" y="-14.4" font-family="Times Roman,serif" font-size="14.00" fill="gray">\Illuminate\Support\Str</text>
</g>
<!-- \\Underscore\\Methods\\StringMethods&#45;&gt;\\Illuminate\\Support\\Str -->
<g id="edge45" class="edge"><title>\\Underscore\\Methods\\StringMethods&#45;&gt;\\Illuminate\\Support\\Str</title>
<path fill="none" stroke="black" d="M924.88,-225.121C918.713,-221.81 912.866,-217.812 908,-213 850.238,-155.881 900.403,-94.5116 836,-45 820.88,-33.376 802.955,-25.6655 784.309,-20.6845"/>
<polygon fill="none" stroke="black" points="785.045,-17.2618 774.503,-18.3223 783.405,-24.0671 785.045,-17.2618"/>
</g>
<!-- \\Underscore\\Methods\\FunctionsMethods -->
<g id="node35" class="node"><title>\\Underscore\\Methods\\FunctionsMethods</title>
<polygon fill="none" stroke="black" points="1031,-204 915,-204 915,-168 1031,-168 1031,-204"/>
<text text-anchor="middle" x="973" y="-183.1" font-family="Times Roman,serif" font-size="11.00">FunctionsMethods</text>
</g>
<!-- \\Underscore\\Types\\String -->
<g id="node37" class="node"><title>\\Underscore\\Types\\String</title>
<polygon fill="none" stroke="black" points="1000,-872 946,-872 946,-836 1000,-836 1000,-872"/>
<text text-anchor="middle" x="973" y="-851.1" font-family="Times Roman,serif" font-size="11.00">String</text>
</g>
<!-- \\Underscore\\Types\\String&#45;&gt;\\Underscore\\Traits\\Repository -->
<g id="edge47" class="edge"><title>\\Underscore\\Types\\String&#45;&gt;\\Underscore\\Traits\\Repository</title>
<path fill="none" stroke="black" d="M945.792,-842.727C934.148,-837.896 920.403,-832.182 908,-827 835.06,-796.525 750.577,-760.974 698.972,-739.229"/>
<polygon fill="none" stroke="black" points="700.304,-735.992 689.729,-735.334 697.585,-742.443 700.304,-735.992"/>
</g>
<!-- \\Underscore\\Types\\Object -->
<g id="node38" class="node"><title>\\Underscore\\Types\\Object</title>
<polygon fill="none" stroke="black" points="1000,-818 946,-818 946,-782 1000,-782 1000,-818"/>
<text text-anchor="middle" x="973" y="-797.1" font-family="Times Roman,serif" font-size="11.00">Object</text>
</g>
<!-- \\Underscore\\Types\\Object&#45;&gt;\\Underscore\\Traits\\Repository -->
<g id="edge49" class="edge"><title>\\Underscore\\Types\\Object&#45;&gt;\\Underscore\\Traits\\Repository</title>
<path fill="none" stroke="black" d="M945.824,-793.164C891.342,-779.459 768.12,-748.462 699.477,-731.195"/>
<polygon fill="none" stroke="black" points="700.312,-727.796 689.76,-728.75 698.604,-734.584 700.312,-727.796"/>
</g>
<!-- \\Underscore\\Types\\Arrays -->
<g id="node39" class="node"><title>\\Underscore\\Types\\Arrays</title>
<polygon fill="none" stroke="black" points="1000,-764 946,-764 946,-728 1000,-728 1000,-764"/>
<text text-anchor="middle" x="973" y="-743.1" font-family="Times Roman,serif" font-size="11.00">Arrays</text>
</g>
<!-- \\Underscore\\Types\\Arrays&#45;&gt;\\Underscore\\Traits\\Repository -->
<g id="edge51" class="edge"><title>\\Underscore\\Types\\Arrays&#45;&gt;\\Underscore\\Traits\\Repository</title>
<path fill="none" stroke="black" d="M945.824,-743.721C891.454,-739.162 768.624,-728.863 699.9,-723.1"/>
<polygon fill="none" stroke="black" points="700.018,-719.598 689.76,-722.25 699.433,-726.573 700.018,-719.598"/>
</g>
<!-- \\Underscore\\Types\\Functions -->
<g id="node40" class="node"><title>\\Underscore\\Types\\Functions</title>
<polygon fill="none" stroke="black" points="1007,-710 939,-710 939,-674 1007,-674 1007,-710"/>
<text text-anchor="middle" x="973" y="-689.1" font-family="Times Roman,serif" font-size="11.00">Functions</text>
</g>
<!-- \\Underscore\\Types\\Functions&#45;&gt;\\Underscore\\Traits\\Repository -->
<g id="edge53" class="edge"><title>\\Underscore\\Types\\Functions&#45;&gt;\\Underscore\\Traits\\Repository</title>
<path fill="none" stroke="black" d="M938.845,-694.864C881.462,-699.676 765.531,-709.396 699.65,-714.921"/>
<polygon fill="none" stroke="black" points="699.195,-711.446 689.522,-715.77 699.78,-718.422 699.195,-711.446"/>
</g>
<!-- \\Underscore\\Types\\Number -->
<g id="node41" class="node"><title>\\Underscore\\Types\\Number</title>
<polygon fill="none" stroke="black" points="1003,-656 943,-656 943,-620 1003,-620 1003,-656"/>
<text text-anchor="middle" x="973" y="-635.1" font-family="Times Roman,serif" font-size="11.00">Number</text>
</g>
<!-- \\Underscore\\Types\\Number&#45;&gt;\\Underscore\\Traits\\Repository -->
<g id="edge55" class="edge"><title>\\Underscore\\Types\\Number&#45;&gt;\\Underscore\\Traits\\Repository</title>
<path fill="none" stroke="black" d="M942.417,-645.693C886.347,-659.798 766.693,-689.897 699.45,-706.812"/>
<polygon fill="none" stroke="black" points="698.369,-703.475 689.525,-709.309 700.077,-710.264 698.369,-703.475"/>
</g>
<!-- \\Underscore\\Dispatch -->
<g id="node42" class="node"><title>\\Underscore\\Dispatch</title>
<polygon fill="none" stroke="black" points="1005,-548 941,-548 941,-512 1005,-512 1005,-548"/>
<text text-anchor="middle" x="973" y="-527.1" font-family="Times Roman,serif" font-size="11.00">Dispatch</text>
</g>
<!-- \\Underscore\\Parse -->
<g id="node43" class="node"><title>\\Underscore\\Parse</title>
<polygon fill="none" stroke="black" points="1000,-494 946,-494 946,-458 1000,-458 1000,-494"/>
<text text-anchor="middle" x="973" y="-473.1" font-family="Times Roman,serif" font-size="11.00">Parse</text>
</g>
<!-- \\Underscore\\Underscore -->
<g id="node44" class="node"><title>\\Underscore\\Underscore</title>
<polygon fill="none" stroke="black" points="1012,-602 934,-602 934,-566 1012,-566 1012,-602"/>
<text text-anchor="middle" x="973" y="-581.1" font-family="Times Roman,serif" font-size="11.00">Underscore</text>
</g>
<!-- \\Underscore\\Underscore&#45;&gt;\\Underscore\\Traits\\Repository -->
<g id="edge57" class="edge"><title>\\Underscore\\Underscore&#45;&gt;\\Underscore\\Traits\\Repository</title>
<path fill="none" stroke="black" d="M933.34,-598.256C924.941,-601.383 916.153,-604.737 908,-608 834.513,-637.412 750.513,-674.326 699.118,-697.293"/>
<polygon fill="none" stroke="black" points="697.609,-694.134 689.911,-701.414 700.469,-700.523 697.609,-694.134"/>
</g>
<!-- \\Underscore\\Method -->
<g id="node45" class="node"><title>\\Underscore\\Method</title>
<polygon fill="none" stroke="black" points="1002,-150 944,-150 944,-114 1002,-114 1002,-150"/>
<text text-anchor="middle" x="973" y="-129.1" font-family="Times Roman,serif" font-size="11.00">Method</text>
</g>
</g>
</svg>
